<svg width="33" height="27" viewBox="0 0 33 27" fill="none" xmlns="http://www.w3.org/2000/svg">
<g id="Bed Choices">
<path id="Vector" d="M31.4173 13.3711H1.84245C1.37718 13.3711 1 13.7483 1 14.2135V22.2489C1 22.7141 1.37718 23.0913 1.84245 23.0913H31.4173C31.8826 23.0913 32.2598 22.7141 32.2598 22.2489V14.2135C32.2598 13.7483 31.8826 13.3711 31.4173 13.3711Z" stroke="#585943" stroke-linecap="round" stroke-linejoin="round"/>
<path id="Vector_2" d="M7.87872 23.0928V24.5213C7.87872 25.3388 7.07222 25.9999 6.08128 25.9999C5.09035 25.9999 4.28384 25.3388 4.28384 24.5213V23.0928" stroke="#585943" stroke-linecap="round" stroke-linejoin="round"/>
<path id="Vector_3" d="M28.9791 23.0928V24.5213C28.9791 25.3388 28.1726 25.9999 27.1816 25.9999C26.1907 25.9999 25.3842 25.3388 25.3842 24.5213V23.0928" stroke="#585943" stroke-linecap="round" stroke-linejoin="round"/>
<path id="Vector_4" d="M7.2629 11.8942V8.68847C7.2629 8.09766 7.75837 7.61938 8.36793 7.61938H14.0713C14.6808 7.61938 15.1763 8.09766 15.1763 8.68847V11.8942" stroke="#585943" stroke-linecap="round" stroke-linejoin="round"/>
<path id="Vector_5" d="M17.6505 11.8942V8.68847C17.6505 8.09766 18.146 7.61938 18.7556 7.61938H24.4589C25.0685 7.61938 25.5639 8.09766 25.5639 8.68847V11.8942" stroke="#585943" stroke-linecap="round" stroke-linejoin="round"/>
<path id="Vector_6" d="M29.1541 11.894V2.33792C29.1541 1.59862 28.5696 1 27.8506 1C27.13 1 26.5471 1.59862 26.5471 2.33792V4.27759H6.71429V2.33792C6.71429 1.59862 6.12973 1 5.41076 1C4.69022 1 4.10722 1.59862 4.10722 2.33792V11.8925" stroke="#585943" stroke-linecap="round" stroke-linejoin="round"/>
</g>
</svg>
