<svg width="50" height="50" viewBox="0 0 50 50" fill="none" xmlns="http://www.w3.org/2000/svg">
<g id="Group 1">
<circle id="Ellipse 1" cx="25" cy="25" r="24.5" stroke="#585943"/>
<path id="Vector" d="M30.6364 42.6513C35.9698 40.0764 39.4052 31.0991 33.7547 22.9853C27.1203 13.4536 28.5343 8 28.5343 8C28.5343 8 22.416 10.1857 21.0128 19.7654C20.3031 24.6219 21.5343 31.2537 21.5343 31.2537C21.5343 31.2537 16.2977 30.4487 17.3246 20.805H17.33C16.9052 21.5087 16.4321 22.2337 15.9052 22.9853C10.2547 31.0991 13.6902 40.0924 19.0289 42.6673C19.0289 42.6673 17.1956 39.3461 18.1042 35.2679C18.1042 35.2679 18.1364 35.3425 18.1956 35.4705C20.2171 39.5433 26.3622 38.7757 27.2977 34.3296C27.6579 32.6131 27.5934 30.3687 26.631 27.474C26.631 27.474 34.7816 34.3456 30.631 42.6513H30.6364Z" stroke="#585943" stroke-linecap="round" stroke-linejoin="round"/>
</g>
</svg>
