<svg width="51" height="50" viewBox="0 0 51 50" fill="none" xmlns="http://www.w3.org/2000/svg">
<g id="Group 1">
<path id="Ellipse 1" d="M50.5 25C50.5 38.5217 39.3165 49.5 25.5 49.5C11.6835 49.5 0.5 38.5217 0.5 25C0.5 11.4783 11.6835 0.5 25.5 0.5C39.3165 0.5 50.5 11.4783 50.5 25Z" stroke="#585943"/>
<path id="Vector" d="M25.5005 18.5454C25.9447 18.1088 28.7303 14.8207 32.0623 15.0077C34.0807 15.1206 36.1613 16.2722 37.5672 18.1502C39.7719 21.0958 39.387 24.7125 36.7242 27.4523C32.9825 31.3011 29.2408 35.1499 25.4991 39C21.7574 35.1512 18.0157 31.3024 14.2739 27.4523C11.6125 24.7137 11.229 21.097 13.4323 18.1502C14.8382 16.2722 16.9188 15.1206 18.9373 15.0077C22.2692 14.8207 25.0548 18.11 25.4991 18.5454H25.5005Z" stroke="#585943" stroke-linecap="round" stroke-linejoin="round"/>
</g>
</svg>
