<svg width="51" height="50" viewBox="0 0 51 50" fill="none" xmlns="http://www.w3.org/2000/svg">
<g id="Group 1">
<path id="Ellipse 1" d="M50.5 25C50.5 38.5217 39.3165 49.5 25.5 49.5C11.6835 49.5 0.5 38.5217 0.5 25C0.5 11.4783 11.6835 0.5 25.5 0.5C39.3165 0.5 50.5 11.4783 50.5 25Z" stroke="#585943"/>
<g id="Coffee">
<g id="Coffee_2">
<path id="Vector" d="M20.707 36.2291C16.8386 35.2078 13.9867 31.6851 13.9867 27.4961V20.8953H35.7109V27.4961C35.7109 31.6851 32.8591 35.2078 28.9891 36.2291" stroke="#585943" stroke-linecap="round" stroke-linejoin="round"/>
<path id="Vector_2" d="M35.7109 22.5891H39.3248C40.3979 22.5891 41.193 23.5821 40.9589 24.6302C40.5598 26.4104 39.3421 28.7123 35.7109 28.7123" stroke="#585943" stroke-linecap="round" stroke-linejoin="round"/>
<path id="Vector_3" d="M21.1532 11.4333C21.1532 12.3054 19.9119 12.3054 19.9119 13.179C19.9119 14.0526 21.1532 14.0526 21.1532 14.9262C21.1532 15.7999 19.9119 15.7999 19.9119 16.675C19.9119 17.5502 21.1532 17.5487 21.1532 18.4239" stroke="#585943" stroke-linecap="round" stroke-linejoin="round"/>
<path id="Vector_4" d="M25.4695 8C25.4695 9.301 24.2282 9.301 24.2282 10.6036C24.2282 11.9061 25.4695 11.9061 25.4695 13.2087C25.4695 14.5113 24.2282 14.5128 24.2282 15.8154C24.2282 17.118 25.4695 17.1196 25.4695 18.4221" stroke="#585943" stroke-linecap="round" stroke-linejoin="round"/>
<path id="Vector_5" d="M29.7841 11.4333C29.7841 12.3054 28.5428 12.3054 28.5428 13.179C28.5428 14.0526 29.7841 14.0526 29.7841 14.9262C29.7841 15.7999 28.5428 15.7999 28.5428 16.675C28.5428 17.5502 29.7841 17.5487 29.7841 18.4239" stroke="#585943" stroke-linecap="round" stroke-linejoin="round"/>
<path id="Vector_6" d="M33.7767 39.4252H17.2832C15.9477 39.4252 14.7017 38.7605 13.9569 37.6528L13 36.2292H38.0631L37.1062 37.6528C36.3614 38.7605 35.1138 39.4252 33.7798 39.4252H33.7767Z" stroke="#585943" stroke-linecap="round" stroke-linejoin="round"/>
</g>
</g>
</g>
</svg>
