<svg width="51" height="50" viewBox="0 0 51 50" fill="none" xmlns="http://www.w3.org/2000/svg">
<g id="Group 1">
<path id="Ellipse 1" d="M50.5 25C50.5 38.5217 39.3165 49.5 25.5 49.5C11.6835 49.5 0.5 38.5217 0.5 25C0.5 11.4783 11.6835 0.5 25.5 0.5C39.3165 0.5 50.5 11.4783 50.5 25Z" stroke="#585943"/>
<g id="Flower Pot">
<g id="Group">
<g id="Group_2">
<path id="Vector" d="M27.231 40C27.5739 38.2615 27.3273 36.6403 26.8069 35.2176C25.5617 31.8217 22.7644 29.5628 22.7644 29.5628C22.7644 29.5628 22.2109 29.1658 21.4289 28.4529C19.7686 26.934 17.0675 23.9863 16.484 20.413" stroke="#585943" stroke-linecap="round" stroke-linejoin="round"/>
<path id="Vector_2" d="M21.4289 28.4499C21.4289 28.4499 14.5019 28.9853 13.3769 24.5216C12.255 20.058 14.0296 13.519 13.6747 12C13.6747 12 14.947 14.4484 20.304 16.0907C25.661 17.736 24.4849 24.6029 23.2788 26.3264" stroke="#585943" stroke-linecap="round" stroke-linejoin="round"/>
</g>
<g id="Group_3">
<path id="Vector_3" d="M26.807 35.2145C28.0733 32.0833 30.1036 29.671 30.1036 29.671C30.1036 29.671 30.3653 29.2619 30.8435 28.6754C31.8632 27.4302 33.8604 25.3969 36.381 24.8464" stroke="#585943" stroke-linecap="round" stroke-linejoin="round"/>
<path id="Vector_4" d="M30.8436 28.6785C30.8436 28.6785 30.1969 23.7637 33.3341 22.7922C36.4712 21.8206 41.1996 22.8343 42.2673 22.5245C42.2673 22.5245 40.5739 23.5261 39.6054 27.4032C38.6369 31.2803 33.701 30.7088 32.4257 29.9148" stroke="#585943" stroke-linecap="round" stroke-linejoin="round"/>
</g>
</g>
</g>
</g>
</svg>
