<svg width="51" height="50" viewBox="0 0 51 50" fill="none" xmlns="http://www.w3.org/2000/svg">
<g id="Group 1">
<path id="Ellipse 1" d="M50.5 25C50.5 38.5217 39.3165 49.5 25.5 49.5C11.6835 49.5 0.5 38.5217 0.5 25C0.5 11.4783 11.6835 0.5 25.5 0.5C39.3165 0.5 50.5 11.4783 50.5 25Z" stroke="#585943"/>
<g id="Group 11">
<path id="Vector" d="M15.5 27.2C14.7111 27.0842 12.7144 27 11.9079 27C9.57825 27 7.21693 27.4807 5 28.4992C8.82284 35.2578 18.0005 37.9437 25.5 34.4994" stroke="#585943" stroke-linecap="round" stroke-linejoin="round"/>
<path id="Vector_2" d="M37 27.2C40.0695 26.7573 43.0186 27.128 46 28.4988C43.3074 33.2616 37.9574 36 32.4102 36C30.0804 36 27.7154 35.5193 25.5 34.5007" stroke="#585943" stroke-linecap="round" stroke-linejoin="round"/>
<path id="Vector_3" d="M20.1253 19.8448C18.3343 18.4044 16.189 17.4 13.8063 17C13.3236 20.2225 13.8616 23.3694 15.165 26.07C17.1414 30.1595 20.8778 33.2257 25.4984 34H25.5" stroke="#585943" stroke-linecap="round" stroke-linejoin="round"/>
<path id="Vector_4" d="M25.5 34H25.5019C33.6876 32.8411 39.5263 26.5215 39.5263 19.3417C39.5263 18.5692 39.4591 17.788 39.3208 17C36.5071 17.4 33.97 18.4061 31.8553 19.8465" stroke="#585943" stroke-linecap="round" stroke-linejoin="round"/>
<path id="Vector_5" d="M25.9874 14L29.436 17.2817C33.3393 20.9959 33.3405 27.0283 29.436 30.7437L25.9874 34.0254L22.5388 30.7437C18.6356 27.0294 18.6344 20.9971 22.5388 17.2817L25.9874 14Z" stroke="#585943" stroke-linecap="round" stroke-linejoin="round"/>
</g>
</g>
</svg>
